<?xml version="1.0" encoding="iso-8859-1"?>
<!-- Generator: Adobe Illustrator 19.0.0, SVG Export Plug-In . SVG Version: 6.00 Build 0)  -->
<svg version="1.1" id="Layer_1" xmlns="http://www.w3.org/2000/svg" xmlns:xlink="http://www.w3.org/1999/xlink" x="0px" y="0px"
	 viewBox="0 0 194.828 194.828" style="enable-background:new 0 0 194.828 194.828;" xml:space="preserve">
<g>
	<g>
		<g>
			<path d="M101.31,3.897c0-2.152-1.743-3.897-3.896-3.897H81.828c-2.154,0-3.897,1.745-3.897,3.897v3.897H23.379V3.897
				c0-2.152-1.743-3.897-3.896-3.897H3.897C1.743,0.001,0,1.745,0,3.897v15.586c0,2.152,1.743,3.897,3.897,3.897h3.897v54.552H3.897
				C1.743,77.931,0,79.677,0,81.829v15.586c0,2.152,1.743,3.897,3.897,3.897h15.586c2.154,0,3.897-1.745,3.897-3.897v-3.897h54.552
				v3.897c0,2.152,1.743,3.897,3.897,3.897h15.586c2.154,0,3.897-1.745,3.897-3.897V81.829c0-2.152-1.743-3.897-3.897-3.897h-3.897
				V23.38h3.897c2.154,0,3.897-1.745,3.897-3.897v-3.897h15.586V7.794H101.31V3.897z M7.793,15.587V7.794h7.793v7.793H7.793z
				 M15.586,93.517H7.793v-7.793h7.793V93.517z M81.827,77.931c-2.154,0-3.897,1.745-3.897,3.897v3.897H23.379v-3.897
				c0-2.152-1.743-3.897-3.897-3.897h-3.897V23.38h3.897c2.154,0,3.897-1.745,3.897-3.897v-3.897h54.552v3.897
				c0,2.152,1.743,3.897,3.897,3.897h3.897v54.552h-0.001H81.827z M93.517,93.517h-7.793v-7.793h7.793V93.517z M93.517,15.587
				h-7.793V7.794h7.793V15.587z"/>
			<rect x="187.034" y="35.069" width="7.793" height="19.483"/>
			<rect x="175.345" y="7.794" width="19.483" height="7.793"/>
			<rect x="187.034" y="74.035" width="7.793" height="19.483"/>
			<rect x="15.586" y="187.035" width="19.483" height="7.793"/>
			<rect x="93.517" y="187.035" width="19.483" height="7.793"/>
			<rect x="7.793" y="155.863" width="7.793" height="19.483"/>
			<rect x="7.793" y="116.897" width="7.793" height="19.483"/>
			<rect x="54.552" y="187.035" width="19.483" height="7.793"/>
			<rect x="132.483" y="187.035" width="19.483" height="7.793"/>
			<rect x="187.034" y="113.001" width="7.793" height="19.483"/>
			<rect x="187.034" y="151.967" width="7.793" height="19.483"/>
			<rect x="136.379" y="7.794" width="19.483" height="7.793"/>
			<rect x="171.448" y="187.035" width="19.483" height="7.793"/>
		</g>
	</g>
</g>
<g>
</g>
<g>
</g>
<g>
</g>
<g>
</g>
<g>
</g>
<g>
</g>
<g>
</g>
<g>
</g>
<g>
</g>
<g>
</g>
<g>
</g>
<g>
</g>
<g>
</g>
<g>
</g>
<g>
</g>
</svg>
